<svg xmlns="http://www.w3.org/2000/svg" width="116.006" height="19.026" viewBox="0 0 116.006 19.026">
  <g id="Group_776" data-name="Group 776" transform="translate(-535 -3828.176)">
    <path id="Icon_feather-star" data-name="Icon feather-star" d="M13,3l3.091,6.262,6.912,1.01-5,4.871,1.18,6.882L13,18.775,6.821,22.026,8,15.144,3,10.272l6.912-1.01Z" transform="translate(532 3825.176)" fill="#db7623"/>
    <path id="Icon_feather-star-2" data-name="Icon feather-star" d="M13,3l3.091,6.262,6.912,1.01-5,4.871,1.18,6.882L13,18.775,6.821,22.026,8,15.144,3,10.272l6.912-1.01Z" transform="translate(556 3825.176)" fill="#db7623"/>
    <path id="Icon_feather-star-3" data-name="Icon feather-star" d="M13,3l3.091,6.262,6.912,1.01-5,4.871,1.18,6.882L13,18.775,6.821,22.026,8,15.144,3,10.272l6.912-1.01Z" transform="translate(580 3825.176)" fill="#db7623"/>
    <path id="Icon_feather-star-4" data-name="Icon feather-star" d="M13,3l3.091,6.262,6.912,1.01-5,4.871,1.18,6.882L13,18.775,6.821,22.026,8,15.144,3,10.272l6.912-1.01Z" transform="translate(604 3825.176)" fill="#db7623"/>
    <path id="Icon_feather-star-5" data-name="Icon feather-star" d="M13,3l3.091,6.262,6.912,1.01-5,4.871,1.18,6.882L13,18.775,6.821,22.026,8,15.144,3,10.272l6.912-1.01Z" transform="translate(628 3825.176)" fill="#db7623"/>
  </g>
</svg>
