<svg xmlns="http://www.w3.org/2000/svg" xmlns:xlink="http://www.w3.org/1999/xlink" width="254.006" height="246.167" viewBox="0 0 254.006 246.167">
  <defs>
    <clipPath id="clip-path">
      <rect id="Rectangle_41" data-name="Rectangle 41" width="200.387" height="186.76" fill="#fff"/>
    </clipPath>
  </defs>
  <g id="Group_781" data-name="Group 781" transform="translate(0 71.812) rotate(-21)">
    <g id="Group_780" data-name="Group 780" clip-path="url(#clip-path)">
      <path id="Path_520" data-name="Path 520" d="M15.4,38.223c-.342,7.647-1.476,16.088-.369,23.678.039.265.5.227.55-.017,1.4-7.554.624-16.023.592-23.684,0-.372-.757-.333-.773.023" transform="translate(-3.18 -8.288)" fill="#fff"/>
      <path id="Path_521" data-name="Path 521" d="M15.89,73.433c.034.3.041.485.327.632a.43.43,0,0,0,.43-.027c.27-.179.28-.352.3-.664.038-.672-1.127-.585-1.054.059" transform="translate(-3.471 -15.928)" fill="#fff"/>
      <path id="Path_522" data-name="Path 522" d="M16.01,80.148q-.067,1.2-.143,2.406c-.02.3.5.261.565.019q.329-1.189.669-2.374c.2-.7-1.053-.742-1.091-.05" transform="translate(-3.466 -17.4)" fill="#fff"/>
      <path id="Path_523" data-name="Path 523" d="M17.112,91.851c-.032-.574-1-.728-.978-.054.224,7.857-.363,16.347,1.241,24.06.048.228.487.446.531.1,1.011-7.8-.353-16.273-.793-24.11" transform="translate(-3.525 -19.957)" fill="#fff"/>
      <path id="Path_524" data-name="Path 524" d="M16.969,132.616a9.149,9.149,0,0,0,.324,1.857c.1.3.5.16.558-.091a10.238,10.238,0,0,0,.213-1.93c.038-.746-1.17-.526-1.095.164" transform="translate(-3.706 -28.834)" fill="#fff"/>
      <path id="Path_525" data-name="Path 525" d="M17.877,141.851a.429.429,0,0,0-.427.492q.131.958.248,1.917c.04.321.385.3.406-.017q.055-.9.126-1.8c.019-.243-.062-.555-.353-.587" transform="translate(-3.811 -30.989)" fill="#fff"/>
      <path id="Path_526" data-name="Path 526" d="M17.811,154.176c.056.469.122.934.2,1.4.04.239.422.116.442-.08.05-.483.088-.965.117-1.451.03-.51-.815-.341-.759.13" transform="translate(-3.891 -33.586)" fill="#fff"/>
      <path id="Path_527" data-name="Path 527" d="M18.41,163.334c-.016-.453-.88-.541-.861-.047.232,6.2-.671,13.3.775,19.331.066.275.661.37.716.043,1.029-6.1-.413-13.149-.63-19.327" transform="translate(-3.819 -35.6)" fill="#fff"/>
      <path id="Path_528" data-name="Path 528" d="M18.2,200.453c-.33-.721-1.462.086-1.138.764a27.961,27.961,0,0,1,.836,3.089.3.3,0,0,0,.553-.007,4.35,4.35,0,0,0-.251-3.847" transform="translate(-3.715 -43.73)" fill="#fff"/>
      <path id="Path_529" data-name="Path 529" d="M17.845,211.263c-.106,1.691-.553,3.758-.084,5.406.065.227.469.354.581.1.665-1.55.425-3.687.5-5.346.025-.535-.964-.739-1-.156" transform="translate(-3.834 -46.076)" fill="#fff"/>
      <path id="Path_530" data-name="Path 530" d="M49.772,202.68c-6.023,1.3-11.979,4.979-17.608,7.442-.323.141.023.52.287.413,5.666-2.3,12.554-3.968,17.636-7.4.267-.181-.092-.5-.315-.456" transform="translate(-6.998 -44.277)" fill="#fff"/>
      <path id="Path_531" data-name="Path 531" d="M64.13,197.6a3.6,3.6,0,0,0-1.275.853c-.513.449.509,1.262.9.757a3.254,3.254,0,0,0,.766-1.3c.034-.191-.217-.366-.39-.316" transform="translate(-13.701 -43.166)" fill="#fff"/>
      <path id="Path_532" data-name="Path 532" d="M70.638,195.546c-.193.005-.264.377-.033.37.193-.006.264-.377.033-.37" transform="translate(-15.393 -42.72)" fill="#fff"/>
      <path id="Path_533" data-name="Path 533" d="M107.375,200.358c-3.566-2.116-8.617-2.709-12.6-3.741-.335-.087-.689.464-.292.592,3.967,1.279,8.477,3.4,12.669,3.6.193.009.448-.313.223-.446" transform="translate(-20.603 -42.952)" fill="#fff"/>
      <path id="Path_534" data-name="Path 534" d="M121.182,204.366a6.509,6.509,0,0,0-.9-.17c-.687-.083-.815,1.086-.218.981a8.788,8.788,0,0,0,1.048-.246c.224-.068.35-.489.067-.564" transform="translate(-26.147 -44.609)" fill="#fff"/>
      <path id="Path_535" data-name="Path 535" d="M124.977,205.8c-.66.02-.4,1.144.212,1.126.659-.019.4-1.144-.212-1.126" transform="translate(-27.218 -44.96)" fill="#fff"/>
      <path id="Path_536" data-name="Path 536" d="M134.364,208.7c-.531.016-.4,1,.138.983s.4-1-.138-.983" transform="translate(-29.28 -45.594)" fill="#fff"/>
      <path id="Path_537" data-name="Path 537" d="M154.58,215.439c-2.2-1.218-4.835-1.626-7.24-2.33-2.8-.818-5.6-1.622-8.366-2.533-.431-.142-.842.528-.333.707,4.848,1.707,10.512,4.476,15.7,4.655.236.008.52-.345.239-.5" transform="translate(-30.236 -45.999)" fill="#fff"/>
      <path id="Path_538" data-name="Path 538" d="M163.022,218.466c-.624.018-.508.817.066.8.624-.018.508-.817-.066-.8" transform="translate(-35.523 -47.727)" fill="#fff"/>
      <path id="Path_539" data-name="Path 539" d="M195.139,207.58c-4.735,1.493-9.282,4.915-13.641,7.283-.413.224-.186,1.086.29.86,4.506-2.13,9.892-4.258,13.53-7.747.143-.138.044-.467-.179-.4" transform="translate(-39.604 -45.347)" fill="#fff"/>
      <path id="Path_540" data-name="Path 540" d="M205.287,203.34a6.672,6.672,0,0,0-1.549.929c-.342.249.169.693.465.489a6.119,6.119,0,0,0,1.363-1.13c.129-.159-.128-.346-.279-.288" transform="translate(-44.485 -44.42)" fill="#fff"/>
      <path id="Path_541" data-name="Path 541" d="M209.506,201.166c-.36.01-.524.7-.134.685.36-.01.524-.7.134-.685" transform="translate(-45.691 -43.948)" fill="#fff"/>
      <path id="Path_542" data-name="Path 542" d="M216.214,198.914c-.038,0-.034.047,0,.046s.034-.047,0-.046" transform="translate(-47.229 -43.456)" fill="#fff"/>
      <path id="Path_543" data-name="Path 543" d="M220.455,196.455c-.425.012-.6.819-.142.8.425-.012.6-.818.142-.8" transform="translate(-48.071 -42.918)" fill="#fff"/>
      <path id="Path_544" data-name="Path 544" d="M234.554,185.105c-4.9,1.909-9.536,5.085-14,7.828-.593.364.013.988.55.692,4.57-2.515,9.607-4.962,13.659-8.267.171-.139-.047-.315-.206-.253" transform="translate(-48.129 -40.436)" fill="#fff"/>
      <path id="Path_545" data-name="Path 545" d="M197.172,76.348,195.721,42.52c-.252-5.884-.445-13.484-.742-19.366-.133-2.615-1.017-15.2-2.129-16.014-1.63-1.193-8.282,1.5-10.063,2.157-2.447.9-4.889,1.822-7.345,2.7q-8.061,2.9-16.221,5.515c-4.524,1.451-9.041,2.932-13.576,4.346-2.208.689-8.451,1.553-11.455,2.9C128.724,21.868,84.8,6.966,78.371,4.691,73.582,3,67.754.506,62.714.035,59.176-.3,54.271,1.8,51.595,2.959,46.726,5.068.838,24.968.754,26.058c-2,25.967.568,52.4.943,78.416.184,12.792.842,24.633,1.058,37.425.109,6.4.461,13.707.647,20.1a199.741,199.741,0,0,0,1.289,20.887c.245,1.8,2.617,4.561,5.27,3.717,5.282-1.681,11.472-5.038,16.657-6.988,5.243-1.972,10.451-4.041,15.661-6.1,4.989-1.97,9.956-4,14.93-6.006,2.714-1.094,5.438-2.165,8.142-3.282a13.5,13.5,0,0,0,3.605-1.812c4.119,2.986,8.616,3.472,13.354,5.221,5.6,2.066,11.206,4.1,16.858,6.012q8.132,2.747,16.315,5.338c5.276,1.672,11.732,5.652,17.33,5.274,4.4-.3,12.9-6.444,15.739-8.13q7.849-4.658,15.827-9.086c5.491-3.061,10.983-6.114,16.544-9.046,2.893-1.526,17-8.181,19.385-10.414.569-.533-2.148-48.2-3.136-71.238M57.663,13.311a28.285,28.285,0,0,1,2.191-7.629c.377-.149.75-.3,1.114-.472-.141,5.072.091,11.058.436,15.86.23,3.2.413,6.395.574,9.594a28.253,28.253,0,0,1-3.151-6.928,26.8,26.8,0,0,1-1.164-10.424M6.549,27.834c4.474-1.554,6.675-2.909,9.45-4,5.647-2.227,11.241-4.6,16.857-6.9Q40.947,13.607,49,10.2l8.049-3.425c.053-.023.109-.043.163-.066-2.559,7.432-.936,17.036,2.6,23.466a26.5,26.5,0,0,0,2.315,3.513q.154,3.3.3,6.593c.338,7.622.571,15.248.779,22.875a25.307,25.307,0,0,0-4.681-1.63c-4.165-.963-7.912-.044-11.948,1.075C32.839,66.4,17.681,72.953,7.4,83.391c-.254-18.229-.374-36.062-.85-55.557m1.188,75.029c-.125-5.732-.22-11.356-.3-16.937,5.3-3.9,10.35-8.069,16.075-11.406a96.308,96.308,0,0,1,19.418-8.645c7.165-2.265,13.7-2.277,20.37.979q.168,6.391.334,12.781c.35,13.129.669,26.257,1.1,39.384q.318,9.649.635,19.3.117,3.546.235,7.092a48.843,48.843,0,0,1-18.226,5.829C33,152.982,14.87,149.408,8.513,135.185c-.321-10.772-.542-21.548-.776-32.322m32.41,64.769c-9.918,4.079-19.954,7.823-30.381,12.253.318-6.206-.244-12.544-.424-18.741q-.291-9.96-.643-19.917c-.026-.766-.045-1.532-.07-2.3,5.086,9.71,16.794,14.36,27.751,15.122,9.72.676,20.665-1.283,29.3-6.488q.019.572.038,1.146c.086,2.573.14,6.527.46,9.127-.732.181-20.839,7.662-26.025,9.8M136.233,30.126c3.687.988,49.175-15.077,52.15-15.744-.041.828.856,22.422,1.953,48.081a11.432,11.432,0,0,0-2.5-1.64c-5.175-2.5-10.616-1.427-15.821.3-6.288,2.084-13.674,6.572-20.45,4-7.41-2.816-5.523-11.088-8.018-17.052-1.356-3.243-4.139-5.063-7.292-6.094-.1-5.571-.2-11.683-.027-11.845m1.136,88.244a1.223,1.223,0,0,0,.688.339c2.078.33,6,.633,7.147-1.651.334-.664-.263-1.311-.911-1.418-2.038-.336-4.156.925-6.2,1.086a1.162,1.162,0,0,0-.758.322q-.118-5.6-.288-11.193-.261-8.258-.4-16.494c2.724.517,5.354-.234,7.951-1a93.369,93.369,0,0,1,11.063-2.753c3.332-.553,7.264-.36,9.96,1.941a12.747,12.747,0,0,1,3.737,6.62,19.048,19.048,0,0,0-1.022,3.052,1.683,1.683,0,0,0,1.749,2.013c.685,15.238-12.537,26.686-26.2,30.413a28.937,28.937,0,0,1-6.331,1.018q-.064-6.146-.185-12.293m.27,24.874q-.009-5.014-.055-10.026a31.347,31.347,0,0,0,3.232-.385c13.506-2.334,26.407-10.3,31.075-23.727,3.949-11.36,1.182-28.682-14.082-27.429-5.879.483-14.873,7.331-21.2,5.559-.1-7-.135-14.007-.051-21.03.073-6.047-.142-12.092-.206-18.138-.016-1.536-.05-3.531-.085-5.629a8.724,8.724,0,0,1,6.495,6.656c.7,3.021.341,6.179,1.038,9.2a11.149,11.149,0,0,0,8.026,8.512c5.99,1.822,11.664-.039,17.2-2.409,4-1.709,7.84-3.357,12.258-3.493a9.566,9.566,0,0,1,9.21,5.354c.761,17.763,1.6,37.035,2.279,52.516-6.575,2.93-9.543,10.126-12.841,16.188a27.328,27.328,0,0,1-4.409,6.391c-2.345,2.343-4.8,2.646-8.058,2.1-4.522-.759-8.443-1.481-13.081-.792a45.8,45.8,0,0,0-13.229,4.527c-1.187.574-2.373,1.177-3.516,1.841q0-2.893,0-5.786M65,20.576c.034-4.37.519-9.861-.3-14.541,3.722,2.123,7.876,3.5,11.886,5.06,6.352,2.466,12.721,4.874,19.134,7.177s12.833,4.6,19.292,6.781c5.65,1.9,11.636,4.612,17.562,5.687a65.6,65.6,0,0,0-.186,10.34,67.844,67.844,0,0,0-20.1-.02c-13.528,1.714-28.956,5.1-41.592-2.016a23.97,23.97,0,0,1-5.533-4.312c-.108-4.718-.2-9.436-.159-14.155m69.036,142.858c-.022,4.917-.4,10.015-.174,14.977a17.49,17.49,0,0,1-2.57-.778c-.434-3.815-1.282-7.586-.643-11.448.6-3.62,1.434-7.443,3.424-10.555q-.02,3.9-.037,7.8m.091-19.25q-.012,3.678-.035,7.355a14.343,14.343,0,0,0-2.432,2.712c-2.315,3.418-2.793,7.64-2.735,11.675.055,3.767-.216,7.489.546,11.085-3.468-1.192-8.183-2.846-11.042-3.74q-8.532-2.667-17.011-5.5c-5.422-1.812-10.847-3.615-16.25-5.482-4.88-1.687-15.106-4.7-15.418-4.87.227-2.535-.388-5.6-.473-8.123l-.138-4.112a33.1,33.1,0,0,0,2.648-2.252c4.248-4.071,7.215-9.041,10.084-14.123,4.164-7.378,8.878-13.285,18.338-11.829,8.538,1.315,14.764,7.142,21.566,11.889a23.669,23.669,0,0,0,12.388,4.367q-.018,5.474-.037,10.947m.195-38.446q-.122,12.424-.149,24.847a23.118,23.118,0,0,1-11.694-4.606c-5.33-3.943-10.422-8.548-16.857-10.628a20.008,20.008,0,0,0-15.431,1.141c-4.56,2.479-7.4,7.2-9.569,11.754C77.7,134.4,74.433,139.287,69.072,143.2q-.072-2.145-.144-4.29l-.657-19.293c-.445-13.1-.994-26.19-1.522-39.285q-.239-5.951-.492-11.9c4.515,2.508,8.949,5.114,14.286,5.409,6.407.353,12.221-2.218,17.338-5.846,5.7-4.042,12.386-12.475,20.281-8.574,10.735,5.305,5.572,24.553,16.109,29.21q.136,8.545.05,17.111m-.092-19.712a7.29,7.29,0,0,1-.7-.624c-2.838-2.893-3.26-7.783-4.029-11.546a41.084,41.084,0,0,0-3.156-10.4c-2.767-5.485-8.047-9.272-14.361-7.949-7.537,1.578-11.627,8.193-17.6,12.256-4.27,2.9-9.394,4.509-14.544,3.45-3.875-.8-7.422-3.132-10.832-5.036-.961-.536-1.926-1.075-2.9-1.594-.32-7.851-.618-15.7-.8-23.555Q65.259,39.016,65.21,37c5.692,5.19,13.4,7.829,21.289,8.365,14.566.989,28.76-3.827,43.285-3.754.867,0,1.751.041,2.631.118.081,1.726.181,3.44.258,5.125.294,6.405.41,12.82.784,19.221q.583,9.99.773,19.95m3.388,91.15c.12-4.371-.048-10.388-.013-14.676q.045-5.35.041-10.7c7.006-5.575,18-8.012,26.52-6.367,3.351.647,6.587,2.068,9.9.479,2.785-1.336,4.953-4.131,6.6-6.656,3.98-6.081,6.23-13.379,12.243-17.481.456,10.365.828,18.749,1.039,23.368-4.917,1.6-54.061,30.4-56.332,32.035" transform="translate(0 0)" fill="#fff"/>
      <path id="Path_546" data-name="Path 546" d="M61.388,112.4c-1.7-.595-3.447-1.012-5.188-1.457,1.23-3.031,2.359-6.084,3.344-9.232.4-1.282-1.862-2.171-2.535-1.07-1.811,2.96-3.46,5.965-5,9.053-.19-.07-.381-.134-.57-.209-2.71-1.071-5.3-2.675-8.173-3.248a1.031,1.031,0,0,0-1,1.723c2.028,2.484,5.089,3.953,8.047,5.147-1.612,3.021-4.018,6.612-3.046,9.852a1.426,1.426,0,0,0,1.827.76c3.282-1.577,4.155-5.841,5.523-9a23.782,23.782,0,0,0,6.984,1.422c2.629.059,1.444-3.168-.213-3.746" transform="translate(-9.171 -21.878)" fill="#fff"/>
      <path id="Path_547" data-name="Path 547" d="M65.1,133.094a14.914,14.914,0,0,0-1.872-3.98c-.76-1.156-1.569-2.282-2.355-3.42-.256-.369-1.193-.185-.921.331.692,1.312,1.363,2.637,2.1,3.926a16.043,16.043,0,0,0,2.57,3.312c.161.167.574.13.48-.17" transform="translate(-13.087 -27.417)" fill="#fff"/>
      <path id="Path_548" data-name="Path 548" d="M79.4,140.968a4.9,4.9,0,0,0-2.413-1.066,10.943,10.943,0,0,1-3-1.372c-.352-.241-1.054.158-.641.542,1.385,1.29,3.984,3.523,6,2.456a.35.35,0,0,0,.049-.561" transform="translate(-15.996 -30.248)" fill="#fff"/>
      <path id="Path_549" data-name="Path 549" d="M97.088,133.087c-1.272.119-2.058,1.071-3.088,1.749a10.039,10.039,0,0,1-4.08,1.511c-.956.145-.331,1.82.492,1.768,2.379-.152,7.171-1.254,7.311-4.27.014-.309-.265-.792-.635-.758" transform="translate(-19.539 -29.074)" fill="#fff"/>
      <path id="Path_550" data-name="Path 550" d="M108.03,122.739c-1.447.592-2.485,2.036-3.551,3.137-.914.944,1.022,2,1.823,1.293l1.776-1.572a4.843,4.843,0,0,0,1.483-1.782c.355-.873-.878-1.343-1.531-1.076" transform="translate(-22.773 -26.798)" fill="#fff"/>
      <path id="Path_551" data-name="Path 551" d="M124.238,114.951c-.538-2.483-4.981.1-6.051.764-.887.554-.609,2.825.638,2.335,1.223-.481,2.5-.814,3.756-1.2.794-.241,1.876-.894,1.658-1.9" transform="translate(-25.706 -24.882)" fill="#fff"/>
      <path id="Path_552" data-name="Path 552" d="M136.935,117.329a1.869,1.869,0,0,0-.535-1.086,3.354,3.354,0,0,0-1.014-.587,8.547,8.547,0,0,0-2.11-.521,1.688,1.688,0,0,0-1.72.785,1.046,1.046,0,0,0,.367,1.519,7.877,7.877,0,0,1,1.529.8,7.546,7.546,0,0,0,.663.423,2.709,2.709,0,0,0,1.3.234c.706.026,1.737-.761,1.526-1.564" transform="translate(-28.703 -25.15)" fill="#fff"/>
      <path id="Path_553" data-name="Path 553" d="M147.055,124.517a6.9,6.9,0,0,0-.82-.855c-.612-.523-1.249-1.019-1.873-1.528-.9-.735-2.618.281-1.829,1.381.457.637.9,1.294,1.375,1.916a3.887,3.887,0,0,0,1.928,1.454c.674.218,1.864-.429,1.684-1.25a2.43,2.43,0,0,0-.466-1.118" transform="translate(-31.094 -26.627)" fill="#fff"/>
      <path id="Path_554" data-name="Path 554" d="M155.8,134.67a8.311,8.311,0,0,0-2.079-2.866c-.877-.866-2.6.313-1.9,1.411.617.962,1.037,2.012,1.579,3.014.382.706,1.129,1.723,2.044,1.114.895-.595.674-1.833.356-2.674" transform="translate(-33.131 -28.729)" fill="#fff"/>
      <path id="Path_555" data-name="Path 555" d="M166.9,147.749a4.48,4.48,0,0,0-.864-.914c-.374-.238-.761-.469-1.142-.7-.789-.473-1.594-.885-2.355-1.407-.858-.589-2.927.271-1.93,1.368a12.942,12.942,0,0,0,2.258,2.11,10.452,10.452,0,0,0,1.37.78,3.178,3.178,0,0,0,.793.269c.124.021,1.207.044.608-.022.713.078,2.03-.666,1.261-1.487" transform="translate(-35.03 -31.577)" fill="#fff"/>
      <path id="Path_556" data-name="Path 556" d="M195.91,141.7A41.458,41.458,0,0,0,192.188,144c-1.1.629.017,1.687.959,1.313a8.31,8.31,0,0,0,3.993-2.624c.535-.772-.634-1.245-1.229-.982" transform="translate(-41.887 -30.941)" fill="#fff"/>
      <path id="Path_557" data-name="Path 557" d="M208.5,131.614c-1.769.914-2.749,2.706-4.169,4.042-.929.874-.259,2.754,1.114,2.234,2.3-.871,4.425-2.391,4.8-4.962a1.262,1.262,0,0,0-1.745-1.314" transform="translate(-44.545 -28.726)" fill="#fff"/>
      <path id="Path_558" data-name="Path 558" d="M224.848,105.853a.488.488,0,0,0-.6-.315c-.564.263-.734.785-.993,1.318l-.865,1.769c-.589,1.207,1.656,2.413,1.966.976q.213-.989.428-1.979a3.009,3.009,0,0,0,.066-1.769" transform="translate(-48.562 -23.05)" fill="#fff"/>
    </g>
  </g>
</svg>
