<svg xmlns="http://www.w3.org/2000/svg" xmlns:xlink="http://www.w3.org/1999/xlink" width="116.549" height="118.33" viewBox="0 0 116.549 118.33">
  <defs>
    <clipPath id="clip-path">
      <rect id="Rectangle_40" data-name="Rectangle 40" width="101.136" height="65.05" fill="#fff"/>
    </clipPath>
  </defs>
  <g id="Group_66" data-name="Group 66" transform="translate(47.575) rotate(47)">
    <g id="Group_65" data-name="Group 65" clip-path="url(#clip-path)">
      <path id="Path_495" data-name="Path 495" d="M14.181,71.569c.079-.1-.032-.215-.132-.131C11.8,73.3,9.573,76.947,9.591,79.949c0,.115.15.056.177-.013a41.641,41.641,0,0,1,1.66-4.49,25.2,25.2,0,0,1,2.753-3.878" transform="translate(-5.424 -40.386)" fill="#fff"/>
      <path id="Path_496" data-name="Path 496" d="M8.994,97.6a3.275,3.275,0,0,0,.083-.98c0-.129-.215-.22-.221-.06a3.76,3.76,0,0,0,.033,1.01c.01.042.085.093.106.03" transform="translate(-4.998 -54.562)" fill="#fff"/>
      <path id="Path_497" data-name="Path 497" d="M9.219,102.329c-.1.014-.157.193-.036.176.1-.015.157-.194.036-.176" transform="translate(-5.155 -57.872)" fill="#fff"/>
      <path id="Path_498" data-name="Path 498" d="M10.039,107.3a3.345,3.345,0,0,0,.848,2.164c.079.068.162-.066.15-.133-.133-.73-.494-1.387-.619-2.127-.045-.265-.409-.132-.38.1" transform="translate(-5.677 -60.549)" fill="#fff"/>
      <path id="Path_499" data-name="Path 499" d="M78.761,123.2c-.72.627-1.249,1.448-1.948,2.1-.783.734-1.694,1.273-2.512,1.956-.1.084-.077.293.085.239a8.313,8.313,0,0,0,4.483-4.221.068.068,0,0,0-.106-.078" transform="translate(-41.987 -69.669)" fill="#fff"/>
      <path id="Path_500" data-name="Path 500" d="M85.7,119.747a1.543,1.543,0,0,0-.493.618c-.111.189.144.476.285.252a1.814,1.814,0,0,0,.337-.752c.007-.063-.057-.159-.129-.118" transform="translate(-48.174 -67.718)" fill="#fff"/>
      <path id="Path_501" data-name="Path 501" d="M88.395,115.158a.434.434,0,0,0-.282.474c.022.291.521.226.419-.006a.43.43,0,0,1,.023-.348c.031-.09-.092-.14-.16-.119" transform="translate(-49.832 -65.126)" fill="#fff"/>
      <path id="Path_502" data-name="Path 502" d="M148.972,50.442a14.641,14.641,0,0,0,1.528-1.576c.619-.631,1.289-1.208,1.91-1.837.115-.116-.1-.187-.191-.129a11.672,11.672,0,0,0-1.9,1.581,6.988,6.988,0,0,0-1.554,1.857c-.058.126.132.161.207.1" transform="translate(-84.129 -26.513)" fill="#fff"/>
      <path id="Path_503" data-name="Path 503" d="M143.656,62.236c.278-.134.361-.484.468-.747s-.293-.3-.393-.09-.343.553-.222.806c.026.054.1.053.147.03" transform="translate(-81.144 -34.649)" fill="#fff"/>
      <path id="Path_504" data-name="Path 504" d="M142.221,66.657c.16-.024.11-.3-.036-.283-.161.024-.109.3.036.283" transform="translate(-80.358 -37.538)" fill="#fff"/>
      <path id="Path_505" data-name="Path 505" d="M140.344,71.869a7.363,7.363,0,0,0-.206,3.3c.017.073.156.129.177.029.22-1.051.228-2.163.419-3.227.038-.212-.335-.331-.391-.1" transform="translate(-79.193 -40.577)" fill="#fff"/>
      <path id="Path_506" data-name="Path 506" d="M212.037,104.763a14.392,14.392,0,0,0-1.6,1.923,10.608,10.608,0,0,1-1.893,1.661c-.105.073.054.276.159.215,1.3-.766,3.205-2.088,3.483-3.694.013-.075-.083-.159-.15-.106" transform="translate(-117.924 -59.24)" fill="#fff"/>
      <path id="Path_507" data-name="Path 507" d="M218.507,100.71a.518.518,0,0,0-.3.435c-.041.274.507.249.46-.056a.451.451,0,0,1,.057-.236c.05-.141-.12-.18-.219-.143" transform="translate(-123.408 -56.95)" fill="#fff"/>
      <path id="Path_508" data-name="Path 508" d="M219.952,97.975c-.043-.112-.186-.047-.191.053,0,.063-.007.126-.011.189-.016.275.35.146.267-.072-.022-.057-.044-.113-.065-.17" transform="translate(-124.281 -55.377)" fill="#fff"/>
      <path id="Path_509" data-name="Path 509" d="M38.216,63.826c-4.821-2.611-11.673-3.085-16.634-.453a14.565,14.565,0,0,0-8.871,14.2c.52,7.362,4.651,14.38,11.909,16.363a17.126,17.126,0,0,0,19.952-9.255,16.421,16.421,0,0,0,1.236-12.071,15.4,15.4,0,0,0-7.591-8.787m5.239,17.263C41.5,88.151,34.893,93.359,27.62,92.6c-6.59-.686-11.095-5.829-12.489-12.262C12.647,68.878,24.886,61,34.876,64.624a14.23,14.23,0,0,1,7.589,6.126,13.529,13.529,0,0,1,.99,10.339" transform="translate(-7.17 -34.848)" fill="#fff"/>
      <path id="Path_510" data-name="Path 510" d="M30.666,73.969a9.828,9.828,0,0,0-6.547,6.16c-.9,2.377-1.591,6.839.614,8.786,2.259,1.995,1.313-4.01,1.325-4.738A11.03,11.03,0,0,1,31,75.349c.494-.327.434-1.613-.339-1.38" transform="translate(-13.155 -41.818)" fill="#fff"/>
      <path id="Path_511" data-name="Path 511" d="M69.006,104.291c-1.217.364-1.563,1.717-2.084,2.73a9.173,9.173,0,0,1-2.043,2.606c-.611.537-.307,1.958.658,1.573a6.77,6.77,0,0,0,3.485-2.432c.769-1.162,1.564-3.062.523-4.294a.62.62,0,0,0-.539-.182" transform="translate(-36.514 -58.976)" fill="#fff"/>
      <path id="Path_512" data-name="Path 512" d="M100.4,27.724a19.143,19.143,0,0,0-9.292-12.229c-2.085-1.989-4.215-3.925-6.428-5.781A50.808,50.808,0,0,0,73.991,3.447a14.443,14.443,0,0,0-4.253-1.173C68.524-2.048,58.754.354,58.43,4.774a2.1,2.1,0,0,0,.059.618c-1.361.763-2.111,5.6-2.456,10.509-1.252-.413-2.866-.624-4-.931a3.382,3.382,0,0,0-.359-.469c-2.264-2.438-6.164-1.2-7.67,1.319-1.04.871-3.529,1.817-4.782,2.965-1.78-4.731-3.973-9.372-5.538-9.717a2.1,2.1,0,0,0-.123-.609c-1.592-4.137-11.638-3.6-11.547.885A14.437,14.437,0,0,0,18.28,11.7a50.793,50.793,0,0,0-8.415,9.1c-1.579,2.418-3.057,4.888-4.475,7.4a19.142,19.142,0,0,0-5.347,14.4C.732,52.333,6.2,61.617,15.8,64.241,26.474,67.158,37.213,61.98,42.193,52a22.111,22.111,0,0,0,2.081-14.182,30.108,30.108,0,0,0-.543-4.524,27.14,27.14,0,0,0-.812-3.414A52.1,52.1,0,0,1,44.945,24.8c.792-1.258,1.336-2,1.647-2.563A4.741,4.741,0,0,0,50.2,21.99a3.409,3.409,0,0,0,.32-.191c.462.449,1.3.764,2.5,1.807a25.359,25.359,0,0,1,2.663,3.325,31.084,31.084,0,0,0,.208,4.556,30.156,30.156,0,0,0,.792,4.487,22.113,22.113,0,0,0,6.1,12.969C70.45,57.056,82.23,58.9,91.6,53.009c8.428-5.3,10.966-15.765,8.8-25.285M26.643,10.161c-.789,1.677-1.34,3.529-1.98,5.239q-1.136,3.033-2.189,6.094a24.818,24.818,0,0,0-4.042.222c1.207-2.093,2.339-4.23,3.5-6.349.88-1.609,1.892-3.2,2.711-4.864a14.313,14.313,0,0,1,2-.342M25.028,15.54c.68-1.781,1.556-3.579,2.113-5.419a15.066,15.066,0,0,1,2.874.092c-.454,2.081-.712,4.218-1.068,6.314-.322,1.892-.739,3.785-.929,5.7a26.56,26.56,0,0,0-5.26-.722q1.135-2.981,2.27-5.962m4.387.4c.332-1.883.741-3.77.984-5.67a15.715,15.715,0,0,1,1.894.412,109.3,109.3,0,0,0,2.03,14.034c-.179-.1-.357-.21-.539-.308a23.875,23.875,0,0,0-5.514-2.117c.522-2.081.773-4.242,1.145-6.35M30.43,7.827a1.639,1.639,0,0,1,.451.318,23.416,23.416,0,0,0-3.762-.006A14.821,14.821,0,0,0,24.2,8.59a6.543,6.543,0,0,1,6.23-.762m-6.372,2.831c-.908,1.568-1.683,3.248-2.534,4.818-1.133,2.09-2.293,4.167-3.375,6.284a20.689,20.689,0,0,0-5.076,1.425q2.4-3.039,4.694-6.152c1.316-1.792,2.772-3.582,3.994-5.469a13.6,13.6,0,0,1,2.3-.906m-6.416,4.121a13.377,13.377,0,0,1,3.029-2.6c-1.2,1.616-2.313,3.322-3.495,4.92q-2.349,3.179-4.7,6.358c-.237.113-.472.229-.7.351a17.633,17.633,0,0,0-3.045,1.6c2.311-3.6,6.11-7.381,8.91-10.626M40.823,47.265c-2.6,9.4-11.394,16.329-21.072,15.321-8.77-.913-14.765-7.757-16.62-16.318C-.174,31.016,16.112,20.527,29.408,25.354a18.94,18.94,0,0,1,10.1,8.152,18,18,0,0,1,1.316,13.758M34.55,24.844c-.813-4.668-1.3-9.368-1.912-14.063q.566.174,1.123.391a.589.589,0,0,0,.091.026c.89,2.057,3.875,11.162,4.9,13.69.729,1.8,1.479,3.606,2.1,5.453a22.165,22.165,0,0,0-6.3-5.5M44.9,21.695a12.373,12.373,0,0,0-1.8,2.572,26,26,0,0,0-1.254,2.28c-.256-.762-.505-1.509-.728-2.229-.356-1.15-.778-2.426-1.242-3.737a17.447,17.447,0,0,0,2.235-1.313,10.183,10.183,0,0,0,1.292-.95,4.2,4.2,0,0,0,.194.974,4.556,4.556,0,0,0,1.548,2.181c-.086.072-.169.146-.245.223m30.6-15.487C79.113,8.5,83.845,11.016,87.1,13.793a17.655,17.655,0,0,0-3.378-.648c-.289-.057-.58-.1-.872-.146Q79.7,10.648,76.544,8.3c-1.613-1.2-3.191-2.528-4.828-3.737a13.349,13.349,0,0,1,3.777,1.644m-4.972-1.9c1.726,1.463,3.65,2.761,5.44,4.1,2.057,1.542,4.142,3.038,6.249,4.507a20.753,20.753,0,0,0-5.245.127C75.316,11.333,73.6,9.681,71.913,8.01c-1.273-1.258-2.5-2.644-3.83-3.883a13.589,13.589,0,0,1,2.438.182m-8.6,1.308C62.7,7.358,63.635,9.039,64.5,10.74c.971,1.917,1.841,3.921,2.95,5.767a23.862,23.862,0,0,0-4.61,3.594c-.166.168-.325.343-.487.516A109.807,109.807,0,0,0,60.225,6.571a15.69,15.69,0,0,1,1.694-.955m5.748,10.759c-.738-1.784-1.691-3.482-2.551-5.207-.946-1.9-1.811-3.86-2.844-5.716a15.089,15.089,0,0,1,2.718-.934c1.066,1.6,2.424,3.063,3.59,4.569q1.958,2.527,3.909,5.058a26.531,26.531,0,0,0-4.821,2.231m5.09-2.32q-1.9-2.629-3.869-5.208C67.78,7.4,66.716,5.785,65.476,4.41a14.274,14.274,0,0,1,2.008-.26c1.267,1.354,2.7,2.588,4.01,3.874,1.724,1.692,3.427,3.409,5.189,5.062a24.849,24.849,0,0,0-3.926.97M61.239,3.262a6.542,6.542,0,0,1,6.183-1.077A14.859,14.859,0,0,0,64.5,2.6a23.4,23.4,0,0,0-3.6,1.1,1.629,1.629,0,0,1,.339-.435M49.832,20.234a2.835,2.835,0,0,1-4.452-1.009,3.3,3.3,0,0,1,.5-3.544,3.627,3.627,0,0,1,4.056-.551c1.652.994,1.153,3.975-.108,5.1m5.963,1.909c0,.477-.013.97-.026,1.469-.436-.422-.859-.79-1.133-1.054a12.368,12.368,0,0,0-2.469-1.94,3.537,3.537,0,0,0-.35-.164,5.864,5.864,0,0,0,.853-3.48,10.5,10.5,0,0,0,1.462.511c.5.142,1.146.341,1.779.48-.071,1.474-.109,2.9-.116,4.177M58.22,22c.249-2.717.466-12.3.721-14.523a.651.651,0,0,0,.08-.051q.44-.347.9-.659c.776,4.679,1.676,9.324,2.25,14.036a22.138,22.138,0,0,0-4.378,7.024c.057-1.947.251-3.9.427-5.827M98.512,32.136c.706,8.731-3.046,17.019-11.175,20.436-8.97,3.771-19.4-.312-24.609-8.553A18,18,0,0,1,60,30.47a18.936,18.936,0,0,1,7.3-10.73c11.324-8.476,29.953-3.16,31.212,12.4" transform="translate(0 0)" fill="#fff"/>
      <path id="Path_513" data-name="Path 513" d="M163.369,42.076c-5.511-1.08-11.931,1.361-15.788,5.257a15.4,15.4,0,0,0-4.718,10.61,16.426,16.426,0,0,0,4.682,11.194,17.128,17.128,0,0,0,21.779,3.072c6.371-4,8.29-11.917,6.653-19.114a14.566,14.566,0,0,0-12.608-11.02m11.094,14.368c.531,6.561-2.289,12.789-8.4,15.357-6.74,2.833-14.575-.234-18.493-6.427a13.526,13.526,0,0,1-2.051-10.182,14.227,14.227,0,0,1,5.487-8.063c8.51-6.369,22.508-2.374,23.454,9.315" transform="translate(-80.797 -23.651)" fill="#fff"/>
      <path id="Path_514" data-name="Path 514" d="M162.041,55.271a9.827,9.827,0,0,0-6.547,6.16c-.9,2.377-1.591,6.839.613,8.786,2.259,1.995,1.313-4.01,1.325-4.738a11.029,11.029,0,0,1,4.947-8.828c.493-.327.434-1.613-.339-1.38" transform="translate(-87.455 -31.243)" fill="#fff"/>
      <path id="Path_515" data-name="Path 515" d="M200.381,85.593c-1.217.364-1.563,1.717-2.084,2.73a9.166,9.166,0,0,1-2.043,2.606c-.611.537-.307,1.958.658,1.573a6.767,6.767,0,0,0,3.485-2.432c.769-1.162,1.564-3.062.523-4.294a.62.62,0,0,0-.539-.182" transform="translate(-110.814 -48.401)" fill="#fff"/>
      <path id="Path_516" data-name="Path 516" d="M108.429,37.313a1.416,1.416,0,0,0-.852.67,1.77,1.77,0,0,0-.2,1.191,1.549,1.549,0,0,0,.575.963,1.37,1.37,0,0,0,1.041.214,1.416,1.416,0,0,0,.852-.67,1.77,1.77,0,0,0,.2-1.191,1.547,1.547,0,0,0-.575-.963,1.37,1.37,0,0,0-1.041-.214" transform="translate(-60.709 -21.09)" fill="#fff"/>
    </g>
  </g>
</svg>
